# xmcd CD database file generated by ivan@maguidhir.ie
#
# Track frame offsets:
#       150
#       18442
#       35252
#       38740
#       56117
#       76792
#       89720
#       96620
#       110397
#       122677
#       146920
#       154497
#       172195
#       178590
#       193865
#       204130
#       227632
#
# Disc length: 3278 seconds
#
# Revision: 3
# Processed by: cddbd v1.5.2PL0 Copyright (c) Steve Scherf et al.
# Submitted via: teh internets
#
DISCID=ee0ccc11
DTITLE=Eric Bibb - Just Like Love
DYEAR=2000
DGENRE=blues
TTITLE0=Wrapped Up in Her Arms
TTITLE1=My Charleston Dream
TTITLE2=Dear John
TTITLE3=Just Like Love
TTITLE4=She's Still With Me
TTITLE5=I Wanna Be Ready
TTITLE6=Katri's Kindness
TTITLE7=Get It While It's Hot
TTITLE8=Home In That Rock
TTITLE9=Forever Ago
TTITLE10=Deep Sea Blues
TTITLE11=Sail Away Ladies
TTITLE12=All Your Sweetness
TTITLE13=Rock Island Rocket
TTITLE14=Marley's Mood
TTITLE15=That's Why I'm Here
TTITLE16=Prayin'
EXTD=
EXTT0=
EXTT1=
EXTT2=
EXTT3=
EXTT4=
EXTT5=
EXTT6=
EXTT7=
EXTT8=
EXTT9=
EXTT10=
EXTT11=
EXTT12=
EXTT13=
EXTT14=
EXTT15=
EXTT16=
PLAYORDER=
